#!OML:ASF C:\ViconDB\ViconDB\414\Spring2016\041811\Spring2016.ASF
:FULLY-SPECIFIED
:DEGREES
171
root 8.11264 21.4478 -16.7341 -175.658 -1.64856 -180.181
lowerback 6.19117 -0.827447 -4.38576
upperback -2.09449 -1.46868 0.310038
thorax -5.54459 -0.570531 2.94618
lowerneck -7.27332 -7.76976 -18.6993
upperneck 17.4117 -10.9877 20.8217
head 8.87139 -4.44713 9.34597
rclavicle 3.10477e-014 4.17448e-015
rhumerus -8.99883 11.3242 -52.0483
rradius 121.498
rwrist -11.5757
rhand -35.0878 -18.6605
rfingers 7.12502
rthumb -8.22954 -48.4802
lclavicle 3.10477e-014 4.17448e-015
lhumerus -1.88291 4.09458 45.511
lradius 103.414
lwrist 6.06541
lhand -35.7322 14.0847
lfingers 7.12502
lthumb -8.85141 43.8791
rfemur -3.81499 -16.2209 14.8641
rtibia 36.6711
rfoot -27.6833 11.8302
rtoes -15.0572
lfemur -2.80817 3.96017 -14.45
ltibia 29.9276
lfoot 12.6608 7.82734
ltoes -1.59487
172
root 8.10134 21.5966 -17.0094 -175.893 -1.52367 -179.941
lowerback 6.50917 -0.752621 -4.09816
upperback -2.08626 -1.36014 0.26562
thorax -5.73265 -0.522764 2.73377
lowerneck -7.05413 -7.92601 -18.8213
upperneck 17.4854 -11.2429 20.9506
head 8.93124 -4.56809 9.3944
rclavicle 1.24613e-014 2.42517e-014
rhumerus -10.1409 11.6937 -53.2154
rradius 120.417
rwrist -10.4964
rhand -35.3969 -19.4533
rfingers 7.12502
rthumb -8.52786 -49.2611
lclavicle 1.24613e-014 2.42517e-014
lhumerus -2.97122 3.2371 46.0051
lradius 102.826
lwrist 6.06061
lhand -35.9047 14.5061
lfingers 7.12502
lthumb -9.01781 44.2934
rfemur -3.76507 -16.0549 15.2698
rtibia 35.2914
rfoot -28.5129 11.2878
rtoes -15.1431
lfemur -2.76938 4.10285 -14.1589
ltibia 28.5592
lfoot 12.2962 7.62916
ltoes -1.98111
173
root 8.09349 21.736 -17.2815 -175.986 -1.48031 -179.647
lowerback 6.63834 -0.732453 -3.79459
upperback -2.0097 -1.31004 0.239254
thorax -5.73542 -0.50966 2.53175
lowerneck -6.996 -8.07672 -18.8258
upperneck 17.497 -11.4839 21.0698
head 8.99016 -4.67094 9.41175
rclavicle -3.62782e-015 -5.36719e-015
rhumerus -11.2415 11.7929 -54.4787
rradius 119.207
rwrist -9.86452
rhand -35.0626 -19.2076
rfingers 7.12502
rthumb -8.20523 -49.0283
lclavicle -3.62782e-015 -5.36719e-015
lhumerus -4.16802 2.46504 46.464
lradius 102.244
lwrist 6.03776
lhand -36.0639 14.5565
lfingers 7.12502
lthumb -9.1715 44.337
rfemur -3.88762 -15.7812 15.8625
rtibia 33.799
rfoot -29.1747 11.0304
rtoes -15.3563
lfemur -2.99784 3.92309 -13.8257
ltibia 27.2473
lfoot 11.7555 7.47667
ltoes -2.38304
174
root 8.08564 21.8579 -17.5465 -175.962 -1.52957 -179.483
lowerback 6.64246 -0.663513 -3.70248
upperback -1.88339 -1.2038 0.26746
thorax -5.61314 -0.463546 2.49599
lowerneck -6.85075 -8.27102 -19.1092
upperneck 17.2207 -11.7876 21.447
head 8.98928 -4.81895 9.55989
rclavicle 6.32384e-015 3.57812e-015
rhumerus -12.4781 11.9662 -55.3715
rradius 118.17
rwrist -9.04252
rhand -35.0367 -19.5727
rfingers 7.12502
rthumb -8.18021 -49.3944
lclavicle 6.32384e-015 3.57812e-015
lhumerus -5.35114 1.73255 47.2017
lradius 101.674
lwrist 5.8322
lhand -35.9472 14.3736
lfingers 7.12502
lthumb -9.05888 44.1591
rfemur -4.20379 -15.5273 16.3301
rtibia 32.4015
rfoot -29.7804 10.7937
rtoes -15.7467
lfemur -3.40913 3.45074 -13.6589
ltibia 25.9128
lfoot 11.0719 7.36401
ltoes -3.24936
175
root 8.08297 21.9658 -17.8114 -175.91 -1.68531 -179.158
lowerback 6.70223 -0.737766 -3.51216
upperback -1.78395 -1.28348 0.294637
thorax -5.53975 -0.511143 2.42607
lowerneck -6.86644 -8.36959 -18.9719
upperneck 17.0682 -11.9537 21.574
head 8.98126 -4.87951 9.55269
rclavicle 1.5207e-014 6.36111e-015
rhumerus -13.7206 12.3599 -56.5413
rradius 117.026
rwrist -8.69717
rhand -35.2847 -19.6942
rfingers 7.12502
rthumb -8.41955 -49.5064
lclavicle 1.5207e-014 6.36111e-015
lhumerus -6.75276 1.02368 47.5017
lradius 101.103
lwrist 5.68972
lhand -35.8452 14.4227
lfingers 7.12502
lthumb -8.96044 44.2124
rfemur -4.57261 -15.1887 16.9946
rtibia 31.0588
rfoot -29.9182 10.6726
rtoes -15.9601
lfemur -3.97912 3.11258 -13.2535
ltibia 24.6796
lfoot 10.3952 6.85159
ltoes -3.88128
176
root 8.07994 22.0508 -18.0469 -176.13 -1.62238 -179.235
lowerback 6.59918 -0.699989 -4.00263
upperback -1.02914 -1.2516 0.373178
thorax -4.68158 -0.509002 2.76825
lowerneck -7.41257 -8.54881 -18.9897
upperneck 16.4 -12.1678 21.8958
head 8.94064 -4.9657 9.59902
rclavicle 2.77305e-014 1.31198e-014
rhumerus -13.9132 12.5576 -57.163
rradius 115.825
rwrist -8.50321
rhand -35.5504 -20.3946
rfingers 7.12502
rthumb -8.67598 -50.1963
lclavicle 2.77305e-014 1.31198e-014
lhumerus -7.49181 0.548769 47.8276
lradius 100.631
lwrist 5.55262
lhand -35.95 14.7734
lfingers 7.12502
lthumb -9.06155 44.5587
rfemur -4.88434 -14.5622 17.2585
rtibia 29.8735
rfoot -29.9051 10.8662
rtoes -16.3399
lfemur -4.3471 2.53789 -13.2978
ltibia 23.5512
lfoot 9.32367 6.68149
ltoes -4.18165
177
root 8.07552 22.1196 -18.2953 -176.101 -1.77862 -179.387
lowerback 6.86302 -0.72078 -4.36763
upperback -0.870137 -1.32288 0.349702
thorax -4.65274 -0.539418 2.96026
lowerneck -7.44552 -8.67976 -19.054
upperneck 16.0451 -12.3599 22.1475
head 8.90004 -5.05339 9.66182
rclavicle 0 -1.63003e-014
rhumerus -15.1841 13.0484 -57.963
rradius 114.701
rwrist -8.2022
rhand -35.5287 -20.0921
rfingers 7.12502
rthumb -8.65505 -49.8947
lclavicle 0 -1.63003e-014
lhumerus -9.03679 -0.0906552 48.3571
lradius 100.329
lwrist 5.25373
lhand -35.7586 14.8393
lfingers 7.12502
lthumb -8.87687 44.6326
rfemur -5.4263 -14.4309 17.4003
rtibia 28.8216
rfoot -29.7541 10.8815
rtoes -16.2207
lfemur -5.03064 1.90911 -13.433
ltibia 22.4728
lfoot 8.31512 6.20195
ltoes -4.41769
178
root 8.07012 22.1699 -18.5491 -175.994 -1.96075 -179.278
lowerback 6.97115 -0.710256 -4.399
upperback -0.692223 -1.31292 0.392449
thorax -4.52715 -0.540193 3.02149
lowerneck -7.50575 -8.8135 -19.1134
upperneck 15.6341 -12.5502 22.4373
head 8.84977 -5.13683 9.73537
rclavicle 2.86747e-014 1.47101e-014
rhumerus -16.6039 13.4688 -58.5858
rradius 113.703
rwrist -8.16285
rhand -35.2584 -20.2803
rfingers 7.12502
rthumb -8.39412 -50.0935
lclavicle 2.86747e-014 1.47101e-014
lhumerus -10.7411 -0.753458 49.111
lradius 99.5564
lwrist 4.11805
lhand -35.6326 14.0181
lfingers 7.12502
lthumb -8.75525 43.8165
rfemur -6.10954 -14.5952 17.8012
rtibia 27.8745
rfoot -29.6084 10.8696
rtoes -16.6868
lfemur -5.84756 1.19929 -13.2434
ltibia 21.529
lfoot 7.23126 5.8044
ltoes -4.55277
179
root 8.06144 22.2063 -18.8007 -175.875 -2.0971 -179.555
lowerback 6.92729 -0.776551 -4.90415
upperback -0.364556 -1.44304 0.346082
thorax -4.13963 -0.612811 3.26522
lowerneck -7.77263 -8.84431 -18.9556
upperneck 15.1747 -12.5756 22.6295
head 8.7598 -5.12919 9.74618
rclavicle 6.26172e-015 -7.95139e-016
rhumerus -17.855 14.1064 -59.338
rradius 112.92
rwrist -8.8048
rhand -34.8534 -19.8302
rfingers 7.12502
rthumb -8.0033 -49.6586
lclavicle 6.26172e-015 -7.95139e-016
lhumerus -12.2853 -1.43421 49.3838
lradius 98.962
lwrist 3.84761
lhand -35.6533 13.5732
lfingers 7.12502
lthumb -8.77522 43.3708
rfemur -6.84169 -14.644 17.7815
rtibia 26.9818
rfoot -29.1233 10.784
rtoes -16.5828
lfemur -6.76153 0.500317 -13.491
ltibia 20.7479
lfoot 6.09402 6.01593
ltoes -4.13543
180
root 8.05304 22.2192 -19.0475 -175.783 -2.25397 -179.13
lowerback 7.3802 -0.693667 -4.34847
upperback -0.331996 -1.30997 0.332003
thorax -4.38454 -0.554062 2.93426
lowerneck -7.64866 -9.03687 -19.1241
upperneck 14.8053 -12.8704 23.0476
head 8.73551 -5.26238 9.88389
rclavicle 2.35063e-014 -6.36111e-015
rhumerus -20.017 14.7455 -60.154
rradius 112.041
rwrist -8.0719
rhand -35.1728 -20.3677
rfingers 7.12502
rthumb -8.31154 -50.1842
lclavicle 2.35063e-014 -6.36111e-015
lhumerus -14.0237 -3.0241 49.7615
lradius 98.5625
lwrist 3.20174
lhand -35.8043 13.8418
lfingers 7.12502
lthumb -8.921 43.6332
rfemur -7.61724 -15.1344 18.539
rtibia 26.0668
rfoot -28.9885 10.656
rtoes -16.4935
lfemur -7.78775 0.0715627 -12.898
ltibia 20.0934
lfoot 5.39246 5.98304
ltoes -4.40601
181
root 8.04241 22.2041 -19.2923 -175.795 -2.3632 -179.1
lowerback 7.95879 -0.57988 -4.13612
upperback -0.283377 -1.17683 0.204122
thorax -4.67742 -0.490485 2.6785
lowerneck -7.50206 -9.19025 -19.1338
upperneck 14.4617 -13.1058 23.2836
head 8.67458 -5.37375 9.9292
rclavicle 1.1778e-014 -1.98785e-015
rhumerus -22.3743 15.3856 -60.9107
rradius 111.551
rwrist -8.22868
rhand -34.7073 -20.4133
rfingers 7.12502
rthumb -7.86224 -50.2471
lclavicle 1.1778e-014 -1.98785e-015
lhumerus -15.955 -4.71305 50.0468
lradius 98.0959
lwrist 2.51243
lhand -35.8619 13.7155
lfingers 7.12502
lthumb -8.97651 43.5045
rfemur -8.44882 -15.9559 18.8199
rtibia 25.3857
rfoot -29.3112 10.2294
rtoes -16.3134
lfemur -8.60213 -0.431398 -12.7308
ltibia 19.3007
lfoot 4.84976 6.05642
ltoes -4.94638
